# xmcd
#
# Track frame offsets:
#	150
#	15423
#	36426
#	58494
#
# Disc length: 1107 seconds
#
# Revision: 1
# Processed by: cddbd v1.5.2PL0 Copyright (c) Steve Scherf et al.
# Submitted via: audiograbber 1.83.01
#
DISCID=31045104
DTITLE=Carolina Chocolate Drops/Luminescent Orchestrii - Carolina Chocolate Dro
DTITLE=ps/Luminescent Orchestrii
DYEAR=2010
DGENRE=Roots
TTITLE0=Short Dress Gal
TTITLE1=Escoutas (Diga Diga Diga)
TTITLE2=Hit 'Em Up Style
TTITLE3=Knockin'
EXTD=
EXTT0=
EXTT1=
EXTT2=
EXTT3=
PLAYORDER=
